<svg width="20" height="17" viewBox="0 0 20 17" fill="none" xmlns="http://www.w3.org/2000/svg">
<path d="M3.5 14L1.35 16.15C1.18333 16.3167 1 16.3583 0.8 16.275C0.6 16.1917 0.5 16.0333 0.5 15.8V2C0.5 1.45 0.696 0.979002 1.088 0.587002C1.48 0.195002 1.95067 -0.000664969 2.5 1.69779e-06H14.5C15.05 1.69779e-06 15.521 0.196002 15.913 0.588002C16.305 0.980002 16.5007 1.45067 16.5 2V7.075C16.3333 7.04167 16.1667 7.02067 16 7.012C15.8333 7.00334 15.6667 6.99934 15.5 7C15.3333 7 15.1667 7.00433 15 7.013C14.8333 7.02167 14.6667 7.04234 14.5 7.075V2H2.5V12H9.575C9.54167 12.1667 9.52067 12.3333 9.512 12.5C9.50333 12.6667 9.49933 12.8333 9.5 13C9.5 13.1667 9.50433 13.3333 9.513 13.5C9.52167 13.6667 9.54233 13.8333 9.575 14H3.5ZM5.5 6H11.5C11.7833 6 12.021 5.904 12.213 5.712C12.405 5.52 12.5007 5.28267 12.5 5C12.5 4.71667 12.404 4.479 12.212 4.287C12.02 4.095 11.7827 3.99934 11.5 4H5.5C5.21667 4 4.979 4.096 4.787 4.288C4.595 4.48 4.49933 4.71734 4.5 5C4.5 5.28334 4.596 5.521 4.788 5.713C4.98 5.905 5.21733 6.00067 5.5 6ZM5.5 10H8.5C8.78333 10 9.021 9.904 9.213 9.712C9.405 9.52 9.50067 9.28267 9.5 9C9.5 8.71667 9.404 8.479 9.212 8.287C9.02 8.095 8.78267 7.99934 8.5 8H5.5C5.21667 8 4.979 8.096 4.787 8.288C4.595 8.48 4.49933 8.71734 4.5 9C4.5 9.28334 4.596 9.521 4.788 9.713C4.98 9.905 5.21733 10.0007 5.5 10ZM14.5 14H12.5C12.2167 14 11.979 13.904 11.787 13.712C11.595 13.52 11.4993 13.2827 11.5 13C11.5 12.7167 11.596 12.479 11.788 12.287C11.98 12.095 12.2173 11.9993 12.5 12H14.5V10C14.5 9.71667 14.596 9.479 14.788 9.287C14.98 9.095 15.2173 8.99934 15.5 9C15.7833 9 16.021 9.096 16.213 9.288C16.405 9.48 16.5007 9.71734 16.5 10V12H18.5C18.7833 12 19.021 12.096 19.213 12.288C19.405 12.48 19.5007 12.7173 19.5 13C19.5 13.2833 19.404 13.521 19.212 13.713C19.02 13.905 18.7827 14.0007 18.5 14H16.5V16C16.5 16.2833 16.404 16.521 16.212 16.713C16.02 16.905 15.7827 17.0007 15.5 17C15.2167 17 14.979 16.904 14.787 16.712C14.595 16.52 14.4993 16.2827 14.5 16V14Z" fill="white"/>
</svg>
