<svg width="71" height="22" viewBox="0 0 71 22" fill="none" xmlns="http://www.w3.org/2000/svg">
<path d="M0.449 17V0.899999H3.784V14.056H12.593V17H0.449ZM18.5024 17.207C17.6437 17.207 16.8847 17.0537 16.2254 16.747C15.566 16.425 15.0524 15.988 14.6844 15.436C14.3164 14.884 14.1324 14.2477 14.1324 13.527C14.1324 12.377 14.5617 11.4877 15.4204 10.859C16.2944 10.215 17.4904 9.893 19.0084 9.893C20.051 9.893 21.0324 10.054 21.9524 10.376V9.502C21.9524 8.812 21.7377 8.29067 21.3084 7.938C20.879 7.58533 20.2504 7.409 19.4224 7.409C18.9164 7.409 18.372 7.49333 17.7894 7.662C17.2067 7.81533 16.532 8.06067 15.7654 8.398L14.6154 6.075C15.566 5.64567 16.4707 5.32367 17.3294 5.109C18.2034 4.89433 19.0774 4.787 19.9514 4.787C21.5614 4.787 22.811 5.178 23.7004 5.96C24.605 6.72667 25.0574 7.81533 25.0574 9.226V17H21.9524V16.149C21.4617 16.517 20.9327 16.7853 20.3654 16.954C19.798 17.1227 19.177 17.207 18.5024 17.207ZM17.1224 13.458C17.1224 13.918 17.3217 14.286 17.7204 14.562C18.119 14.8227 18.648 14.953 19.3074 14.953C19.8287 14.953 20.3117 14.8917 20.7564 14.769C21.201 14.631 21.5997 14.4317 21.9524 14.171V12.423C21.569 12.2697 21.1704 12.1547 20.7564 12.078C20.3424 12.0013 19.8977 11.963 19.4224 11.963C18.7017 11.963 18.1344 12.101 17.7204 12.377C17.3217 12.6377 17.1224 12.998 17.1224 13.458ZM27.4422 17V5.017H30.5932V6.006C31.4979 5.19333 32.6172 4.787 33.9512 4.787C34.8865 4.787 35.7069 4.994 36.4122 5.408C37.1329 5.80667 37.6925 6.36633 38.0912 7.087C38.4899 7.79233 38.6892 8.62033 38.6892 9.571V17H35.5382V10.031C35.5382 9.249 35.3159 8.63567 34.8712 8.191C34.4265 7.731 33.8209 7.501 33.0542 7.501C32.5175 7.501 32.0422 7.60833 31.6282 7.823C31.2142 8.02233 30.8692 8.31367 30.5932 8.697V17H27.4422ZM47.102 21.922C46.182 21.922 45.2927 21.8223 44.434 21.623C43.5753 21.439 42.801 21.1707 42.111 20.818L43.215 18.38C43.8743 18.702 44.5183 18.9397 45.147 19.093C45.7757 19.2463 46.4043 19.323 47.033 19.323C47.9683 19.323 48.6737 19.1237 49.149 18.725C49.6397 18.3263 49.885 17.7283 49.885 16.931V15.988C48.9037 16.7087 47.8073 17.069 46.596 17.069C45.4613 17.069 44.434 16.8007 43.514 16.264C42.6093 15.712 41.881 14.9683 41.329 14.033C40.7923 13.0977 40.524 12.0627 40.524 10.928C40.524 9.79333 40.7923 8.766 41.329 7.846C41.881 6.926 42.6247 6.19767 43.56 5.661C44.4953 5.109 45.538 4.833 46.688 4.833C47.2707 4.833 47.838 4.91733 48.39 5.086C48.942 5.25467 49.4557 5.49233 49.931 5.799V5.017H53.036V16.977C53.036 18.5563 52.5223 19.7753 51.495 20.634C50.483 21.4927 49.0187 21.922 47.102 21.922ZM47.079 14.401C47.6617 14.401 48.1907 14.309 48.666 14.125C49.1413 13.9257 49.5477 13.6497 49.885 13.297V8.605C49.5477 8.26767 49.1337 8.007 48.643 7.823C48.1677 7.62367 47.654 7.524 47.102 7.524C46.4427 7.524 45.8523 7.67733 45.331 7.984C44.8097 8.27533 44.3957 8.68167 44.089 9.203C43.7823 9.709 43.629 10.284 43.629 10.928C43.629 11.5873 43.7747 12.1777 44.066 12.699C44.3727 13.2203 44.7867 13.6343 45.308 13.941C45.8447 14.2477 46.435 14.401 47.079 14.401ZM54.1849 17L60.3259 8.674L54.5069 0.899999H58.4859L62.3039 6.19L66.0989 0.899999H69.9399L64.2129 8.674L70.4229 17H66.4439L62.2349 11.158L58.0259 17H54.1849Z" fill="#1A1A1A"/>
</svg>
